<svg version="1.1" xmlns="http://www.w3.org/2000/svg" viewBox="0 0 1396.9023539697275 1162.2786654943595" width="2793.804707939455" height="2324.557330988719" filter="invert(93%) hue-rotate(180deg)">
  <!-- svg-source:excalidraw -->
  
  <defs>
    <style class="style-fonts">
      @font-face {
        font-family: "Virgil";
        src: url("https://excalidraw.com/Virgil.woff2");
      }
      @font-face {
        font-family: "Cascadia";
        src: url("https://excalidraw.com/Cascadia.woff2");
      }
    </style>
  </defs>
  <rect x="0" y="0" width="1396.9023539697275" height="1162.2786654943595" fill="#ffffff"></rect><g stroke-linecap="round" transform="translate(568.2690698936283 276.08203125) rotate(0 108 90.42126532734733)"><path d="M32 0 M32 0 C72.55 3.23, 111.78 2.43, 184 0 M32 0 C91.54 0.6, 153.13 0.43, 184 0 M184 0 C204.92 -0.64, 214.87 10.85, 216 32 M184 0 C207.22 -0.82, 214.23 9.59, 216 32 M216 32 C217.36 58.67, 216.17 89.37, 216 148.84 M216 32 C216.01 67.7, 215.57 101.31, 216 148.84 M216 148.84 C215.88 171.43, 205.45 181.23, 184 180.84 M216 148.84 C218.1 171.89, 206.65 181.73, 184 180.84 M184 180.84 C137.5 180.49, 94.42 181.5, 32 180.84 M184 180.84 C127.11 181.24, 71.23 180.05, 32 180.84 M32 180.84 C9.51 180.69, -1.27 168.44, 0 148.84 M32 180.84 C10.33 181.45, 0.43 168.71, 0 148.84 M0 148.84 C2.46 103.58, -0.74 55.61, 0 32 M0 148.84 C-0.44 122.79, -0.84 96.64, 0 32 M0 32 C0.83 9.04, 8.88 0.52, 32 0 M0 32 C-2.07 9.84, 11.59 -1.54, 32 0" stroke="#000000" stroke-width="1" fill="none"></path></g><g transform="translate(585.7690698936283 276.08203125) rotate(0 90.5 12.5)"><text x="90.5" y="18" font-family="Virgil, Segoe UI Emoji" font-size="20px" fill="#000000" text-anchor="middle" style="white-space: pre;" direction="ltr">FVIdentityRegistry</text></g><g stroke-linecap="round" transform="translate(512.0856411653949 163.0534997363423) rotate(0 159 30)"><path d="M15 0 M15 0 C77.73 -2.55, 143.56 -0.55, 303 0 M15 0 C75 -1.27, 136.34 -2.08, 303 0 M303 0 C314.19 0.5, 316.13 5.33, 318 15 M303 0 C311.02 0.45, 316.86 6.82, 318 15 M318 15 C316.71 22.22, 317.05 27.2, 318 45 M318 15 C316.95 24.39, 317.8 34.53, 318 45 M318 45 C317.38 55.65, 314.54 58.1, 303 60 M318 45 C320.11 54.5, 313.01 58.54, 303 60 M303 60 C205.17 60.77, 106.1 59.48, 15 60 M303 60 C225.74 59.17, 149.47 59.65, 15 60 M15 60 C5.88 60.72, 1.72 55.77, 0 45 M15 60 C2.71 62.25, -0.11 54.66, 0 45 M0 45 C-0.08 33.49, -1.59 26.3, 0 15 M0 45 C0.24 34.96, 0.25 25.96, 0 15 M0 15 C-1.32 5.17, 4.22 0.15, 15 0 M0 15 C1.8 5.07, 5.43 -0.01, 15 0" stroke="#0b7285" stroke-width="1" fill="none"></path></g><g transform="translate(529.5856411653949 180.5534997363423) rotate(0 141.5 12.5)"><text x="141.5" y="18" font-family="Virgil, Segoe UI Emoji" font-size="20px" fill="#0b7285" text-anchor="middle" style="white-space: pre;" direction="ltr">TransparentUpgradableProxy</text></g><g stroke-linecap="round" transform="translate(10 641.6716340765915) rotate(0 110.5 30)"><path d="M15 0 M15 0 C85.44 -0.33, 158.82 -1.13, 206 0 M15 0 C87.91 2.34, 161.01 1.09, 206 0 M206 0 C214.51 1.84, 219.98 4.53, 221 15 M206 0 C217.78 1.37, 219.93 3.07, 221 15 M221 15 C221.14 20.98, 219.85 27.25, 221 45 M221 15 C221.51 25.14, 220.72 34.02, 221 45 M221 45 C222.02 54.98, 217.02 61.95, 206 60 M221 45 C219.81 56.78, 213.93 57.81, 206 60 M206 60 C145.11 57.88, 80.21 60.04, 15 60 M206 60 C162.72 58.79, 118.14 59.49, 15 60 M15 60 C3.85 59.4, -1.04 54.36, 0 45 M15 60 C3.6 61.66, -1.07 56.08, 0 45 M0 45 C0.29 31.61, 1.72 20.08, 0 15 M0 45 C-0.27 37.68, 0.25 31.23, 0 15 M0 15 C0.06 4.15, 6.43 -0.15, 15 0 M0 15 C0.55 5.85, 5.39 -1.05, 15 0" stroke="#000000" stroke-width="1" fill="none"></path></g><g transform="translate(69.5 659.1716340765915) rotate(0 51 12.5)"><text x="51" y="18" font-family="Virgil, Segoe UI Emoji" font-size="20px" fill="#c92a2a" text-anchor="middle" style="white-space: pre;" direction="ltr">FVIdentity</text></g><g stroke-linecap="round" transform="translate(1147.041536591148 664.3925399232561) rotate(0 110.5 30)"><path d="M15 0 M15 0 C59.78 -2.23, 103.09 0.39, 206 0 M15 0 C57.48 0.06, 101.66 -0.74, 206 0 M206 0 C216.88 -0.89, 220.38 6.89, 221 15 M206 0 C217.36 -1.56, 219.42 5.57, 221 15 M221 15 C219.38 26.07, 219.25 38.84, 221 45 M221 15 C221.13 25.89, 221.05 38.94, 221 45 M221 45 C220.03 56.91, 214.76 61.84, 206 60 M221 45 C220.85 54.34, 215.95 61.96, 206 60 M206 60 C164.14 58.68, 124.08 58.33, 15 60 M206 60 C154.8 61.29, 103.36 62.33, 15 60 M15 60 C5.72 61.68, 0.02 53.53, 0 45 M15 60 C5.91 60.51, 2.23 54.21, 0 45 M0 45 C-0.2 38.42, 1.06 33.24, 0 15 M0 45 C-0.32 33.77, -0.54 22.97, 0 15 M0 15 C0.05 4.3, 5.69 -0.66, 15 0 M0 15 C-0.47 4.87, 3.85 0.71, 15 0" stroke="#000000" stroke-width="1" fill="none"></path></g><g transform="translate(1189.541536591148 681.8925399232561) rotate(0 68 12.5)"><text x="68" y="18" font-family="Virgil, Segoe UI Emoji" font-size="20px" fill="#c92a2a" text-anchor="middle" style="white-space: pre;" direction="ltr">FVKeyManager</text></g><g stroke-linecap="round" transform="translate(611.0504849153949 10) rotate(0 59 43)"><path d="M83.6 3.25 C92.27 5.54, 101.44 11.71, 107.06 17.88 C112.69 24.05, 116.44 32.83, 117.36 40.26 C118.27 47.68, 116.72 56.18, 112.56 62.45 C108.4 68.73, 100.48 73.94, 92.4 77.9 C84.32 81.87, 73.81 85.76, 64.09 86.24 C54.37 86.72, 43.06 84.1, 34.09 80.79 C25.12 77.48, 15.79 72.3, 10.27 66.39 C4.75 60.49, 1.75 52.48, 0.97 45.38 C0.19 38.28, 1.57 29.99, 5.57 23.8 C9.56 17.61, 16.85 12.29, 24.94 8.24 C33.04 4.18, 43.42 -0.03, 54.14 -0.53 C64.85 -1.03, 82.8 3.74, 89.25 5.23 C95.71 6.72, 93.47 7.75, 92.86 8.43 M67.6 -0.69 C76.78 -0.4, 85.74 5.7, 93.28 9.96 C100.81 14.21, 108.96 18.24, 112.81 24.84 C116.66 31.44, 117.32 42.15, 116.38 49.55 C115.45 56.94, 112.81 63.82, 107.19 69.2 C101.58 74.58, 91.87 79.16, 82.71 81.83 C73.55 84.51, 62.33 86.09, 52.24 85.23 C42.15 84.38, 29.85 80.98, 22.16 76.73 C14.48 72.48, 9.66 66.02, 6.14 59.74 C2.61 53.45, -0.11 46.19, 1.02 39.03 C2.16 31.86, 7.3 22.47, 12.95 16.76 C18.59 11.04, 26.06 7.65, 34.9 4.74 C43.74 1.83, 60.87 -0.19, 65.99 -0.73 C71.12 -1.26, 65.71 0.84, 65.64 1.53" stroke="#862e9c" stroke-width="1" fill="none"></path></g><g transform="translate(649.0504849153949 46.75) rotate(0 21 12.5)"><text x="21" y="18" font-family="Virgil, Segoe UI Emoji" font-size="20px" fill="#862e9c" text-anchor="middle" style="white-space: pre;" direction="ltr">EOA</text></g><g mask="url(#mask-7ngySeUSC_L-WAHPT_5gu)" stroke-linecap="round"><g transform="translate(672.3736785713281 97.2914060577318) rotate(0 0.5066468490099965 29.89586293207952)"><path d="M0.78 -0.69 C1.16 9.21, 1.4 49.2, 1.22 59.18 M-0.27 1.57 C0.13 11.64, 0.93 50.69, 0.75 60.48" stroke="#000000" stroke-width="1" fill="none"></path></g><g transform="translate(672.3736785713281 97.2914060577318) rotate(0 0.5066468490099965 29.89586293207952)"><path d="M-10.71 34 C-8.19 37.35, -5.94 43.35, 0.11 59.12 M-10.2 32.68 C-7.05 37.55, -4.69 43.95, 1.53 61.01" stroke="#000000" stroke-width="1" fill="none"></path></g><g transform="translate(672.3736785713281 97.2914060577318) rotate(0 0.5066468490099965 29.89586293207952)"><path d="M9.69 33.92 C7.88 37.41, 5.81 43.43, 0.11 59.12 M10.2 32.6 C9.1 37.43, 7.21 43.84, 1.53 61.01" stroke="#000000" stroke-width="1" fill="none"></path></g></g><mask id="mask-7ngySeUSC_L-WAHPT_5gu"><rect x="0" y="0" fill="#fff" width="772.6884999599552" height="256.9363122363423"></rect><rect x="624.0310892656416" y="117.11385914703705" fill="#000" width="97" height="20" opacity="1"></rect></mask><g transform="translate(624.0310892656416 117.11385914703706) rotate(0 48.849236154696484 10.073409842774272)"><text x="48.5" y="14" font-family="Virgil, Segoe UI Emoji" font-size="16px" fill="#0b7285" text-anchor="middle" style="white-space: pre;" direction="ltr">owns (admin)</text></g><g stroke-linecap="round"><g transform="translate(674.2583364664672 231.66283267750134) rotate(0 0.07571247168817763 17.702625341789243)"><path d="M-0.81 0.46 C-0.76 6.54, 0.27 30.07, 0.43 35.75 M0.96 -0.35 C0.93 5.44, 0.18 27.95, -0.02 33.93" stroke="#000000" stroke-width="1" fill="none"></path></g><g transform="translate(674.2583364664672 231.66283267750134) rotate(0 0.07571247168817763 17.702625341789243)"><path d="M-4.82 18.58 C-3.07 23.38, -3.19 27, 1.55 34.65 M-5.21 17.75 C-3.21 23.4, -1.75 29.24, 0.34 33.06" stroke="#000000" stroke-width="1" fill="none"></path></g><g transform="translate(674.2583364664672 231.66283267750134) rotate(0 0.07571247168817763 17.702625341789243)"><path d="M7.21 18.98 C5.25 23.58, 1.42 27.07, 1.55 34.65 M6.82 18.14 C4.7 23.77, 2.04 29.47, 0.34 33.06" stroke="#000000" stroke-width="1" fill="none"></path></g></g><mask></mask><g stroke-linecap="round"><g transform="translate(111.313089770576 528.7251884190363) rotate(0 -0.42263203965548257 52.02300850042289)"><path d="M0.81 1.2 C0.54 18.14, -1.46 85.14, -1.66 102.15 M-0.22 0.78 C-0.13 17.81, 0.65 85.94, 0.52 103.27" stroke="#000000" stroke-width="1" fill="none"></path></g><g transform="translate(111.313089770576 528.7251884190363) rotate(0 -0.42263203965548257 52.02300850042289)"><path d="M-7.84 73.43 C-7.96 83.9, -2.98 92.01, 0.08 102.29 M-10.01 76.1 C-7.11 80.84, -5.87 87.62, 0.37 103.44" stroke="#000000" stroke-width="1" fill="none"></path></g><g transform="translate(111.313089770576 528.7251884190363) rotate(0 -0.42263203965548257 52.02300850042289)"><path d="M12.68 73.36 C6.43 84, 5.27 92.13, 0.08 102.29 M10.51 76.03 C8.87 80.92, 5.56 87.71, 0.37 103.44" stroke="#000000" stroke-width="1" fill="none"></path></g></g><mask></mask><g stroke-linecap="round"><g transform="translate(1262.1367103113846 503.5454738156325) rotate(0 0.062479011577124766 79.31434047031601)"><path d="M-0.82 -0.51 C-0.83 26.03, 0.5 133.71, 0.73 160.46 M0.95 -1.83 C0.74 24.87, 0.12 131.45, -0.04 158.65" stroke="#000000" stroke-width="1" fill="none"></path></g><g transform="translate(1262.1367103113846 503.5454738156325) rotate(0 0.062479011577124766 79.31434047031601)"><path d="M-10.99 130.95 C-5.14 141.15, -2.24 150.04, -0.79 159.9 M-10.22 129.97 C-7.75 137.64, -5.68 144.07, 0.85 159.25" stroke="#000000" stroke-width="1" fill="none"></path></g><g transform="translate(1262.1367103113846 503.5454738156325) rotate(0 0.062479011577124766 79.31434047031601)"><path d="M9.53 131.07 C7.87 141.08, 3.26 149.93, -0.79 159.9 M10.3 130.09 C7.77 137.8, 4.83 144.19, 0.85 159.25" stroke="#000000" stroke-width="1" fill="none"></path></g></g><mask></mask><g transform="translate(599.0095584977672 327.93485908139894) rotate(0 80.5 19.999999999999986)"><text x="0" y="14" font-family="Virgil, Segoe UI Emoji" font-size="15.74601392517962px" fill="#c92a2a" text-anchor="start" style="white-space: pre;" direction="ltr">fvIdentityBeacon</text><text x="0" y="34" font-family="Virgil, Segoe UI Emoji" font-size="15.74601392517962px" fill="#c92a2a" text-anchor="start" style="white-space: pre;" direction="ltr">fvKeyManagerBeacon</text></g><g stroke-linecap="round"><g transform="translate(773.0773899595029 360.43846080696255) rotate(0 248.95247415299445 33.59949744827239)"><path d="M-0.06 -0.73 C73.24 1.45, 357.81 1.38, 440.59 12.82 C523.38 24.26, 487.33 58.83, 496.65 67.92 M-1.54 1.51 C72.04 3.9, 359.34 3.58, 442.77 14.33 C526.21 25.08, 490.16 56.95, 499.07 66" stroke="#495057" stroke-width="1" fill="none"></path></g><g transform="translate(773.0773899595029 360.43846080696255) rotate(0 248.95247415299445 33.59949744827239)"><path d="M486.91 36.38 C492.02 46.83, 497.44 56.9, 499.45 67.94 M487.15 39.05 C490.81 44.77, 491.95 50.85, 499.92 66.63" stroke="#495057" stroke-width="1" fill="none"></path></g><g transform="translate(773.0773899595029 360.43846080696255) rotate(0 248.95247415299445 33.59949744827239)"><path d="M507.43 35.87 C504.99 46.5, 502.87 56.76, 499.45 67.94 M507.66 38.55 C507.04 44.17, 503.88 50.35, 499.92 66.63" stroke="#495057" stroke-width="1" fill="none"></path></g></g><mask></mask><g stroke-linecap="round"><g transform="translate(591.0373705853078 336.78975738372867) rotate(0 -232.88086541933674 56.329845379093726)"><path d="M1.13 0.25 C-67.19 2.87, -332.58 -2.28, -410.59 16.36 C-488.59 34.99, -457.64 96.07, -466.89 112.04 M0.26 -0.66 C-67.62 2.01, -330.84 -1.68, -408.3 17.31 C-485.75 36.31, -454.86 97.32, -464.46 113.32" stroke="#495057" stroke-width="1" fill="none"></path></g><g transform="translate(591.0373705853078 336.78975738372867) rotate(0 -232.88086541933674 56.329845379093726)"><path d="M-472.27 83.13 C-472.36 89.99, -468.62 98.39, -464.36 111.83 M-472.64 83.82 C-470.83 94.49, -467.13 103.49, -463.66 113.98" stroke="#495057" stroke-width="1" fill="none"></path></g><g transform="translate(591.0373705853078 336.78975738372867) rotate(0 -232.88086541933674 56.329845379093726)"><path d="M-451.8 84.59 C-456.92 91.29, -458.22 99.32, -464.36 111.83 M-452.17 85.28 C-457.35 95.47, -460.66 103.96, -463.66 113.98" stroke="#495057" stroke-width="1" fill="none"></path></g></g><mask></mask><g stroke-linecap="round" transform="translate(11.135665840633237 459.74119708937917) rotate(0 110.5 37.5)"><path d="M18.75 0 M18.75 0 C83.95 -1.2, 147.24 -0.44, 202.25 0 M18.75 0 C72.92 -0.74, 127.1 -0.25, 202.25 0 M202.25 0 C214.07 1.32, 219.1 7.65, 221 18.75 M202.25 0 C212.49 0.05, 220.54 6.73, 221 18.75 M221 18.75 C222.46 30.4, 220.54 39.8, 221 56.25 M221 18.75 C220.21 31.91, 219.99 46.88, 221 56.25 M221 56.25 C219.38 69.09, 215.28 74.17, 202.25 75 M221 56.25 C218.77 70.5, 215.19 77.07, 202.25 75 M202.25 75 C152.04 75.21, 100 74.09, 18.75 75 M202.25 75 C154.51 74.2, 107.8 75.18, 18.75 75 M18.75 75 C6.77 73.54, -1.3 66.84, 0 56.25 M18.75 75 C5.14 75.31, 2.25 70.64, 0 56.25 M0 56.25 C0.75 46.82, 0.78 40.11, 0 18.75 M0 56.25 C-0.37 44.81, 0.08 34.29, 0 18.75 M0 18.75 C0.05 7.06, 6.76 -1.68, 18.75 0 M0 18.75 C-0.96 4.01, 5.66 -0.39, 18.75 0" stroke="#0b7285" stroke-width="1" fill="none"></path></g><g transform="translate(33.13566584063324 464.74119708937917) rotate(0 88.5 12.5)"><text x="88.5" y="18" font-family="Virgil, Segoe UI Emoji" font-size="20px" fill="#0b7285" text-anchor="middle" style="white-space: pre;" direction="ltr">UpgradableBeacon</text></g><g transform="translate(62.70133742602991 501.67533349099176) rotate(0 55 10)"><text x="0" y="14" font-family="Virgil, Segoe UI Emoji" font-size="16px" fill="#c92a2a" text-anchor="start" style="white-space: pre;" direction="ltr">implementation</text></g><g stroke-linecap="round" transform="translate(1165.9023539697275 432.06771433090137) rotate(0 110.5 37.5)"><path d="M18.75 0 M18.75 0 C69.05 0.18, 117.92 -0.62, 202.25 0 M18.75 0 C88.55 0.81, 158.4 0.98, 202.25 0 M202.25 0 C213.96 0.33, 221.47 5, 221 18.75 M202.25 0 C213.44 2.15, 220.97 8.26, 221 18.75 M221 18.75 C219.86 33.77, 221.41 45.18, 221 56.25 M221 18.75 C221.23 27.53, 220.38 36.72, 221 56.25 M221 56.25 C220.73 70.75, 214.53 75.4, 202.25 75 M221 56.25 C222.13 68.84, 213.23 73.45, 202.25 75 M202.25 75 C158.15 75.82, 115.33 74.05, 18.75 75 M202.25 75 C134.19 77.04, 67.26 76.07, 18.75 75 M18.75 75 C4.43 73.1, -0.58 70.17, 0 56.25 M18.75 75 C4.12 72.73, 0.52 70.1, 0 56.25 M0 56.25 C-1.61 44.38, -0.68 34.43, 0 18.75 M0 56.25 C-0.05 46.77, 0.13 35.08, 0 18.75 M0 18.75 C-1.5 6.44, 6.91 -1.41, 18.75 0 M0 18.75 C1.53 4.44, 6.53 0.71, 18.75 0" stroke="#0b7285" stroke-width="1" fill="none"></path></g><g transform="translate(1187.9023539697275 437.06771433090137) rotate(0 88.5 12.5)"><text x="88.5" y="18" font-family="Virgil, Segoe UI Emoji" font-size="20px" fill="#0b7285" text-anchor="middle" style="white-space: pre;" direction="ltr">UpgradableBeacon</text></g><g transform="translate(1217.4680255551243 474.00185073251396) rotate(0 55 10)"><text x="0" y="14" font-family="Virgil, Segoe UI Emoji" font-size="16px" fill="#c92a2a" text-anchor="start" style="white-space: pre;" direction="ltr">implementation</text></g><g transform="translate(604.5016323863164 399.6909249440311) rotate(0 54.5 10)"><text x="0" y="14" font-family="Virgil, Segoe UI Emoji" font-size="16px" fill="#000000" text-anchor="start" style="white-space: pre;" direction="ltr">register(addr)</text></g><g stroke-linecap="round" transform="translate(402.5242073580929 821.5078805402018) rotate(0 110.5 45.5)"><path d="M22.75 0 M22.75 0 C84.36 0.11, 146.68 1.37, 198.25 0 M22.75 0 C64.37 1.53, 106.14 0.05, 198.25 0 M198.25 0 C214.25 -0.02, 219.56 5.86, 221 22.75 M198.25 0 C214.05 0.95, 219.18 7.54, 221 22.75 M221 22.75 C221.46 37.13, 222.4 51.07, 221 68.25 M221 22.75 C222.23 38.6, 221.14 53.16, 221 68.25 M221 68.25 C219.68 85.07, 213.07 89.15, 198.25 91 M221 68.25 C221.09 82.25, 215.49 90.32, 198.25 91 M198.25 91 C150.55 90.64, 102.25 88.09, 22.75 91 M198.25 91 C162.25 90.89, 127.69 90.21, 22.75 91 M22.75 91 C7.1 92.19, 1.13 84.54, 0 68.25 M22.75 91 C5.71 88.94, -0.69 82.91, 0 68.25 M0 68.25 C1.14 55.52, 0.11 43.08, 0 22.75 M0 68.25 C1.15 53.92, 0.81 40.52, 0 22.75 M0 22.75 C-0.19 6.2, 7.45 0.73, 22.75 0 M0 22.75 C-0.68 9.7, 6.41 -0.17, 22.75 0" stroke="#0b7285" stroke-width="1" fill="none"></path></g><g transform="translate(451.0242073580929 826.5078805402018) rotate(0 62 25)"><text x="62" y="18" font-family="Virgil, Segoe UI Emoji" font-size="20px" fill="#0b7285" text-anchor="middle" style="white-space: pre;" direction="ltr">BeaconProxy</text><text x="62" y="43" font-family="Virgil, Segoe UI Emoji" font-size="20px" fill="#0b7285" text-anchor="middle" style="white-space: pre;" direction="ltr">(FVIdentity)</text></g><g transform="translate(484.0601162013801 881.509524909337) rotate(0 26.5 10)"><text x="26.5" y="14" font-family="Virgil, Segoe UI Emoji" font-size="16px" fill="#c92a2a" text-anchor="middle" style="white-space: pre;" direction="ltr">beacon</text></g><g stroke-linecap="round" transform="translate(776.22371870401 821.8463441142644) rotate(0 110.5 42.5)"><path d="M21.25 0 M21.25 0 C87.64 2.7, 149.52 2.66, 199.75 0 M21.25 0 C89.43 -1.43, 156.48 -0.49, 199.75 0 M199.75 0 C212.82 0.89, 219.27 7, 221 21.25 M199.75 0 C213.08 1.49, 219.46 8.34, 221 21.25 M221 21.25 C219.08 36.94, 222.26 53.14, 221 63.75 M221 21.25 C221.79 36.84, 220.37 52.65, 221 63.75 M221 63.75 C222.81 76.84, 212.29 85.52, 199.75 85 M221 63.75 C223.07 78.08, 216.03 82.73, 199.75 85 M199.75 85 C136.05 84.62, 72.43 85.22, 21.25 85 M199.75 85 C138.92 85.08, 79.32 84.11, 21.25 85 M21.25 85 C6.17 83.39, -0.09 77.91, 0 63.75 M21.25 85 C7.17 87.04, -1.87 79.14, 0 63.75 M0 63.75 C1.53 51.43, 1.29 34.5, 0 21.25 M0 63.75 C-0.36 55.14, -0.77 44.6, 0 21.25 M0 21.25 C1.41 8.8, 5.82 1.52, 21.25 0 M0 21.25 C2.07 5.27, 7.69 2.08, 21.25 0" stroke="#0b7285" stroke-width="1" fill="none"></path></g><g transform="translate(821.72371870401 826.8463441142644) rotate(0 65 25)"><text x="65" y="18" font-family="Virgil, Segoe UI Emoji" font-size="20px" fill="#0b7285" text-anchor="middle" style="white-space: pre;" direction="ltr">BeaconProxy</text><text x="65" y="43" font-family="Virgil, Segoe UI Emoji" font-size="20px" fill="#0b7285" text-anchor="middle" style="white-space: pre;" direction="ltr">(KeyManager)</text></g><g transform="translate(860.8724191236548 878.0327409268477) rotate(0 26.499999999999943 10)"><text x="26.5" y="14" font-family="Virgil, Segoe UI Emoji" font-size="16px" fill="#c92a2a" text-anchor="middle" style="white-space: pre;" direction="ltr">beacon</text></g><g mask="url(#mask-tuexPPghuJQmPsG1GJIhy)" stroke-linecap="round"><g transform="translate(657.6880245221536 427.5398964812731) rotate(0 -75.78459947290435 195.2689001011526)"><path d="M-1.06 0.83 C-26.26 65.71, -127.25 325.72, -152.15 390.32 M0.58 0.22 C-24.16 65.32, -124.67 323.96, -149.9 388.82" stroke="#0b7285" stroke-width="1" fill="none"></path></g><g transform="translate(657.6880245221536 427.5398964812731) rotate(0 -75.78459947290435 195.2689001011526)"><path d="M-147.87 357.36 C-147.15 366.84, -150.45 371.15, -151.06 387.41 M-149.8 357.93 C-149.44 367.35, -148.52 375.07, -150.35 388.07" stroke="#0b7285" stroke-width="1" fill="none"></path></g><g transform="translate(657.6880245221536 427.5398964812731) rotate(0 -75.78459947290435 195.2689001011526)"><path d="M-128.74 364.8 C-132.35 372.45, -139.91 375.11, -151.06 387.41 M-130.68 365.37 C-135.31 372.84, -139.37 378.63, -150.35 388.07" stroke="#0b7285" stroke-width="1" fill="none"></path></g></g><mask id="mask-tuexPPghuJQmPsG1GJIhy"><rect x="0" y="0" fill="#fff" width="908.960223501311" height="916.6630869037137"></rect><rect x="551.0519250325748" y="612.1014916924935" fill="#000" width="62" height="20" opacity="1"></rect></mask><g transform="translate(551.0519250325749 612.1014916924935) rotate(0 30.851500016674322 10.707304889932232)"><text x="31" y="14" font-family="Virgil, Segoe UI Emoji" font-size="16px" fill="#0b7285" text-anchor="middle" style="white-space: pre;" direction="ltr">creates</text></g><g mask="url(#mask-RAdota-HsBQIGmNI1QRpG)" stroke-linecap="round"><g transform="translate(677.0212800505877 428.9947021049288) rotate(0 101.82703579252217 193.8920825737526)"><path d="M-0.64 -0.37 C33 64.6, 168.18 324.43, 202.01 389.39 M1.22 -1.6 C35.22 63.03, 170.95 322.65, 204.3 387.46" stroke="#0b7285" stroke-width="1" fill="none"></path></g><g transform="translate(677.0212800505877 428.9947021049288) rotate(0 101.82703579252217 193.8920825737526)"><path d="M181.59 365.8 C189.72 372.86, 196.69 380.99, 206.19 388.77 M181.99 366.5 C188.98 373.98, 196.67 379.41, 205.27 387.43" stroke="#0b7285" stroke-width="1" fill="none"></path></g><g transform="translate(677.0212800505877 428.9947021049288) rotate(0 101.82703579252217 193.8920825737526)"><path d="M199.8 356.35 C202.14 366.29, 203.37 377.4, 206.19 388.77 M200.2 357.04 C201.56 367.42, 203.54 375.82, 205.27 387.43" stroke="#0b7285" stroke-width="1" fill="none"></path></g></g><mask id="mask-RAdota-HsBQIGmNI1QRpG"><rect x="0" y="0" fill="#fff" width="979.8553327103937" height="918.0133735541835"></rect><rect x="747.4383063804909" y="613.5040378295562" fill="#000" width="62" height="20" opacity="1"></rect></mask><g transform="translate(747.4383063804908 613.5040378295562) rotate(0 31.410009462619144 9.382746849125226)"><text x="31" y="14" font-family="Virgil, Segoe UI Emoji" font-size="16px" fill="#0b7285" text-anchor="middle" style="white-space: pre;" direction="ltr">creates</text></g><g stroke-linecap="round"><g transform="translate(920.3081080983457 889.1154191338175) rotate(0 119.48124440914955 -209.1681693676094)"><path d="M1.15 0.68 C21.48 -7.01, 99.49 16.9, 123.13 -45.8 C146.76 -108.49, 123.71 -313.64, 142.96 -375.48 C162.22 -437.32, 222.77 -409.93, 238.67 -416.81 M0.3 -0.02 C20.9 -7.59, 101.16 17.68, 125.35 -44.66 C149.55 -107, 126.6 -311.67, 145.48 -374.06 C164.36 -436.45, 222.85 -412.02, 238.61 -419.01" stroke="#0b7285" stroke-width="1" fill="none"></path></g><g transform="translate(920.3081080983457 889.1154191338175) rotate(0 119.48124440914955 -209.1681693676094)"><path d="M212.01 -409.1 C220.56 -413.55, 233.12 -417.85, 239.75 -420.55 M211.35 -407.27 C221.24 -411.19, 230.9 -414.82, 239.13 -418.03" stroke="#0b7285" stroke-width="1" fill="none"></path></g><g transform="translate(920.3081080983457 889.1154191338175) rotate(0 119.48124440914955 -209.1681693676094)"><path d="M211.13 -429.61 C220.08 -425.95, 232.99 -422.14, 239.75 -420.55 M210.48 -427.78 C220.69 -424.3, 230.66 -420.55, 239.13 -418.03" stroke="#0b7285" stroke-width="1" fill="none"></path></g></g><mask></mask><g stroke-linecap="round"><g transform="translate(472.13549798454505 893.0599312815821) rotate(0 -114.86356263705261 -197.58123117668342)"><path d="M-0.45 1.06 C-22.77 -6.06, -111.94 17.98, -135.11 -41.53 C-158.28 -101.04, -123.45 -296.95, -139.47 -356.02 C-155.49 -415.09, -215.85 -389.29, -231.24 -395.96 M1.51 0.57 C-20.84 -6.4, -112.36 16.39, -135.94 -43.38 C-159.52 -103.16, -124.12 -299.52, -139.98 -358.09 C-155.83 -416.66, -216.05 -388.57, -231.07 -394.82" stroke="#0b7285" stroke-width="1" fill="none"></path></g><g transform="translate(472.13549798454505 893.0599312815821) rotate(0 -114.86356263705261 -197.58123117668342)"><path d="M-201.29 -405.15 C-207.73 -402.65, -213.38 -401.55, -230.97 -396.07 M-202.94 -405.65 C-211.25 -402.1, -219.94 -398.62, -230.9 -394.37" stroke="#0b7285" stroke-width="1" fill="none"></path></g><g transform="translate(472.13549798454505 893.0599312815821) rotate(0 -114.86356263705261 -197.58123117668342)"><path d="M-200.95 -384.64 C-207.66 -386.27, -213.38 -389.31, -230.97 -396.07 M-202.61 -385.14 C-210.84 -387.74, -219.63 -390.42, -230.9 -394.37" stroke="#0b7285" stroke-width="1" fill="none"></path></g></g><mask></mask><g mask="url(#mask-Qx_IbZX9PRKrRCl0uektM)" stroke-linecap="round"><g transform="translate(767.7532949285909 869.2847284770003) rotate(0 -67.68641921449915 1.2508098518143242)"><path d="M-1.79 -0.96 C-36.65 -0.02, -77.04 -0.14, -133.58 3.46" stroke="#0b7285" stroke-width="1.5" fill="none" stroke-dasharray="8 9"></path></g><g transform="translate(767.7532949285909 869.2847284770003) rotate(0 -67.68641921449915 1.2508098518143242)"><path d="M-107.73 -9.17 C-112.76 -6.09, -123.31 -3.37, -133.27 5.37" stroke="#0b7285" stroke-width="1.5" fill="none"></path></g><g transform="translate(767.7532949285909 869.2847284770003) rotate(0 -67.68641921449915 1.2508098518143242)"><path d="M-106.7 11.33 C-112.01 8.66, -122.85 5.62, -133.27 5.37" stroke="#0b7285" stroke-width="1.5" fill="none"></path></g></g><mask id="mask-Qx_IbZX9PRKrRCl0uektM"><rect x="0" y="0" fill="#fff" width="1001.6497387377965" height="970.8310401940416"></rect><rect x="673.805073023988" y="850.0578843355208" fill="#000" width="54" height="40" opacity="1"></rect></mask><g transform="translate(673.8050730239881 850.057884335521) rotate(0 26.261802690103593 20.477653993293643)"><text x="27" y="14" font-family="Virgil, Segoe UI Emoji" font-size="16px" fill="#0b7285" text-anchor="middle" style="white-space: pre;" direction="ltr">owns</text><text x="27" y="34" font-family="Virgil, Segoe UI Emoji" font-size="16px" fill="#0b7285" text-anchor="middle" style="white-space: pre;" direction="ltr">(admin)</text></g><g stroke-linecap="round" transform="translate(819.9465855170026 1043.2786654943595) rotate(0 81.5 54.5)"><path d="M101.29 1.53 C112.31 2.5, 124.79 7.49, 133.85 12.57 C142.9 17.64, 150.58 24.82, 155.6 31.99 C160.62 39.16, 164.22 47.51, 163.95 55.59 C163.69 63.67, 159.49 73.51, 154.02 80.47 C148.55 87.42, 140.52 92.79, 131.14 97.31 C121.77 101.82, 109.5 105.87, 97.75 107.56 C86 109.24, 72.11 109.25, 60.63 107.42 C49.14 105.58, 37.86 101.56, 28.86 96.53 C19.86 91.5, 11.57 84.59, 6.62 77.23 C1.66 69.87, -1.44 60.26, -0.88 52.36 C-0.32 44.46, 4.47 36.89, 9.99 29.82 C15.51 22.74, 22.76 14.59, 32.22 9.89 C41.68 5.19, 53.98 2.66, 66.75 1.61 C79.51 0.56, 100.96 3, 108.81 3.6 C116.65 4.21, 114.18 4.47, 113.8 5.24 M70.69 0.53 C81.41 -1.7, 94.78 -1.06, 106.02 1.28 C117.26 3.62, 129.65 9.1, 138.14 14.56 C146.63 20.02, 152.65 26.84, 156.97 34.05 C161.28 41.26, 165 49.85, 164.04 57.83 C163.07 65.82, 157.15 75.15, 151.17 81.98 C145.19 88.8, 137.64 94.36, 128.13 98.8 C118.63 103.24, 105.78 107.46, 94.14 108.63 C82.5 109.8, 69.79 107.94, 58.29 105.82 C46.8 103.7, 33.92 101.06, 25.19 95.91 C16.45 90.75, 9.98 82.28, 5.91 74.89 C1.84 67.5, -0.07 59.7, 0.74 51.57 C1.55 43.44, 4.79 33.22, 10.76 26.11 C16.74 19, 26.68 12.92, 36.58 8.89 C46.47 4.86, 64.45 3.03, 70.14 1.94 C75.83 0.85, 70.59 1.61, 70.74 2.35" stroke="#862e9c" stroke-width="1" fill="none"></path></g><g transform="translate(842.9465855170026 1060.2786654943595) rotate(0 58.5 37.5)"><text x="58.5" y="18" font-family="Virgil, Segoe UI Emoji" font-size="20px" fill="#862e9c" text-anchor="middle" style="white-space: pre;" direction="ltr">EOA </text><text x="58.5" y="43" font-family="Virgil, Segoe UI Emoji" font-size="20px" fill="#862e9c" text-anchor="middle" style="white-space: pre;" direction="ltr">(registered </text><text x="58.5" y="68" font-family="Virgil, Segoe UI Emoji" font-size="20px" fill="#862e9c" text-anchor="middle" style="white-space: pre;" direction="ltr">address)</text></g><g mask="url(#mask-ANYjPDumycC52GVrT-1Hw)" stroke-linecap="round"><g transform="translate(892.9290566890858 1039.0066826232428) rotate(0 -1.8537665851887937 -69.21593703901777)"><path d="M0.68 -1.76 C-0.1 -38.93, -2.3 -75.14, -4.38 -136.67" stroke="#000000" stroke-width="1.5" fill="none" stroke-dasharray="8 9"></path></g><g transform="translate(892.9290566890858 1039.0066826232428) rotate(0 -1.8537665851887937 -69.21593703901777)"><path d="M7.61 -110.65 C5.27 -117.83, 1.21 -124.07, -4.35 -135.12" stroke="#000000" stroke-width="1.5" fill="none"></path></g><g transform="translate(892.9290566890858 1039.0066826232428) rotate(0 -1.8537665851887937 -69.21593703901777)"><path d="M-12.89 -109.87 C-9.67 -117.27, -8.17 -123.72, -4.35 -135.12" stroke="#000000" stroke-width="1.5" fill="none"></path></g></g><mask id="mask-ANYjPDumycC52GVrT-1Hw"><rect x="0" y="0" fill="#fff" width="997.3488143690304" height="1277.2278580110128"></rect><rect x="863.7191778491134" y="949.8960949293577" fill="#000" width="54" height="40" opacity="1"></rect></mask><g transform="translate(863.7191778491135 949.8960949293576) rotate(0 27.356112254783454 19.89465065486735)"><text x="27" y="14" font-family="Virgil, Segoe UI Emoji" font-size="16px" fill="#000000" text-anchor="middle" style="white-space: pre;" direction="ltr">owns</text><text x="27" y="34" font-family="Virgil, Segoe UI Emoji" font-size="16px" fill="#000000" text-anchor="middle" style="white-space: pre;" direction="ltr">(admin)</text></g></svg>